<svg version="1.2" baseProfile="tiny-ps" xmlns="http://www.w3.org/2000/svg" viewBox="0 0 621 98" width="621" height="98">
	<title>icon-left-font-svg</title>
	<style>
		tspan { white-space:pre }
		.s0 { fill: #fd2d01 } 
	</style>
	<g id="b5a93e15-ef7c-9d7a-680b-cdb17474f15f">
		<path id="Layer" fill-rule="evenodd" class="s0" d="m10.8 65.24c-7.19-7.19-10.78-16.16-10.78-26.91c0-10.56 3.59-19.46 10.78-26.69c7.19-7.19 16.11-10.78 26.77-10.78c10.71 0 19.9 3.35 27.57 10.05l-9.97 10.93c-5.13-4.01-11-6.01-17.6-6.01c-6.75 0.05-12.2 2.18-16.35 6.38c-4.11 4.16-6.16 9.48-6.16 15.99c0 6.99 2.08 12.54 6.23 16.65c4.16 4.11 9.61 6.16 16.35 6.16c5.43 0 9.58-1.05 12.47-3.15v-12.91l-9.97 0.07v-14.08h25.01v35.13c-7.63 6.65-16.82 9.97-27.57 9.97c-10.66 0-19.58-3.59-26.77-10.78zm81.25-39.38v5.57c3.62-3.67 7.99-5.5 13.13-5.5c1.61 0 3.15 0.12 4.62 0.37l-2.2 13.86c-1.61-1.47-3.94-2.25-6.97-2.35c-3.42 0.24-6.28 2.71-8.58 7.41v30.8h-14.01v-48.62l14.01-1.54zm31.39 43.34c-4.84-4.89-7.26-10.95-7.26-18.19c0-7.28 2.42-13.37 7.26-18.26c4.89-4.89 10.98-7.33 18.26-7.33c7.28 0 13.37 2.44 18.26 7.33c4.89 4.89 7.33 10.98 7.33 18.26c0 7.28-2.44 13.35-7.33 18.19c-4.89 4.89-10.98 7.33-18.26 7.33c-7.28 0-13.37-2.44-18.26-7.33zm18.26-4.77c3.76 0 6.84-1.3 9.24-3.89c2.4-2.54 3.59-5.72 3.59-9.53c0-3.81-1.2-6.99-3.59-9.53c-2.4-2.59-5.5-3.89-9.31-3.89c-3.76 0-6.84 1.3-9.24 3.89c-2.35 2.54-3.52 5.72-3.52 9.53c0 3.81 1.17 6.99 3.52 9.53c2.4 2.59 5.5 3.89 9.31 3.89zm65.34-6.16v-32.41h14.01v50.16h-14.01v-4.55c-3.37 3.03-7.38 4.55-12.03 4.55c-6.36 0-11.2-1.93-14.52-5.79c-3.37-3.86-5.06-8.29-5.06-13.27v-31.09h14.08v27.57c0 3.32 0.83 5.92 2.49 7.77c1.66 1.86 4.18 2.84 7.55 2.93c2.93-0.2 5.43-2.15 7.48-5.87zm39.97 38.87l-14.01-0.07v-69.67l14.01-1.54v4.03c3.76-2.69 7.46-4.03 11.07-4.03c7.68 0 13.76 2.52 18.26 7.55c4.55 4.99 6.82 10.83 6.82 17.53c0 6.7-2.27 12.54-6.82 17.53c-4.5 5.04-10.58 7.55-18.26 7.55c-5.04-0.34-8.73-1.71-11.07-4.11v25.23zm0-50.75v8.14c0.68 5.62 4.2 8.92 10.56 9.9c8.02-0.64 12.54-4.79 13.57-12.47c-0.34-9.39-4.86-14.25-13.57-14.59c-6.36 1.03-9.88 4.03-10.56 9.02zm50.6 22.81c-4.89-4.89-7.33-10.95-7.33-18.19c0-7.28 2.44-13.37 7.33-18.26c4.84-4.89 10.9-7.33 18.19-7.33c7.28 0 13.37 2.44 18.26 7.33c4.89 4.89 7.33 10.98 7.33 18.26c0 7.28-2.44 13.35-7.33 18.19c-4.89 4.89-10.98 7.33-18.26 7.33c-7.28 0-13.35-2.44-18.19-7.33zm18.19-4.77c3.81 0 6.89-1.3 9.24-3.89c2.4-2.54 3.59-5.72 3.59-9.53c0-3.81-1.2-6.99-3.59-9.53c-2.35-2.59-5.45-3.89-9.31-3.89c-3.76 0-6.84 1.3-9.24 3.89c-2.35 2.54-3.52 5.72-3.52 9.53c0 3.81 1.17 6.99 3.52 9.53c2.4 2.59 5.5 3.89 9.31 3.89zm48.99-20.46v32.05h-14.08v-48.62l14.08-1.54v4.47c3.13-2.93 7.14-4.4 12.03-4.4c6.31 0 11.15 1.91 14.52 5.72c3.67-3.81 9.17-5.72 16.5-5.72c6.36 0 11.22 1.91 14.59 5.72c3.32 3.86 4.99 8.31 4.99 13.35v31.02h-14.01v-27.57c0-3.32-0.76-5.92-2.27-7.77c-1.52-1.81-3.96-2.76-7.33-2.86c-2.79 0.2-5.18 2.03-7.19 5.5c-0.2 1.03-0.29 2.08-0.29 3.15v29.55h-14.01v-27.57c0-3.32-0.76-5.92-2.27-7.77c-1.52-1.81-3.96-2.76-7.33-2.86c-3.08 0.2-5.72 2.25-7.92 6.16zm75.97-12.03c6.36-4.01 13.71-6.01 22.07-6.01c6.01 0 10.76 1.66 14.23 4.99c3.52 3.37 5.28 8.38 5.28 15.03v30.07h-14.01v-3.96c-4.11 2.64-7.8 3.96-11.07 3.96c-6.65 0-11.66-1.42-15.03-4.25c-3.32-2.84-4.99-6.75-4.99-11.73c0-4.69 1.59-8.87 4.77-12.54c3.13-3.67 8.21-5.5 15.25-5.5c3.28 0 6.97 1 11.07 3.01v-1.54c-0.1-3.67-2.79-5.67-8.07-6.01c-6.01 0-10.68 1-14.01 3.01l-5.5-8.51zm27.57 29.04v-5.65c-1.32-2.59-4.5-3.89-9.53-3.89c-6.01 0.68-9.19 3.03-9.53 7.04c0.34 3.96 3.52 6.11 9.53 6.45c5.04 0 8.21-1.32 9.53-3.96zm40.63-16.79v31.83h-14.08v-48.62l14.08-1.54v4.55c3.37-2.98 7.38-4.47 12.03-4.47c6.36 0 11.2 1.91 14.52 5.72c3.32 3.86 4.99 8.31 4.99 13.35v31.02h-14.01v-27.57c0-3.32-0.83-5.92-2.49-7.77c-1.71-1.81-4.25-2.76-7.63-2.86c-2.88 0.2-5.35 2.32-7.41 6.38zm57.35 31.83h-14.01v-50.16h14.01v50.16zm-12.54-67.17c1.37-1.37 3.18-2.05 5.43-2.05c2.4 0 4.28 0.68 5.65 2.05c1.32 1.37 1.98 3.06 1.98 5.06c0 2-0.66 3.67-1.98 4.99c-1.37 1.32-3.2 1.98-5.5 1.98c-2.35 0-4.2-0.66-5.57-1.98c-1.32-1.32-1.98-2.98-1.98-4.99c0-2 0.66-3.69 1.98-5.06zm25.74 23.1c6.36-4.01 13.71-6.01 22.07-6.01c6.01 0 10.78 1.66 14.3 4.99c3.47 3.37 5.21 8.38 5.21 15.03v30.07h-14.01v-3.96c-4.06 2.64-7.72 3.96-11 3.96c-6.7 0-11.71-1.42-15.03-4.25c-3.37-2.84-5.06-6.75-5.06-11.73c0-4.69 1.59-8.87 4.77-12.54c3.13-3.67 8.24-5.5 15.33-5.5c3.23 0 6.89 1 11 3.01v-1.54c-0.05-3.67-2.71-5.67-7.99-6.01c-6.01 0-10.71 1-14.08 3.01l-5.5-8.51zm27.57 29.04v-5.65c-1.32-2.59-4.5-3.89-9.53-3.89c-6.01 0.68-9.19 3.03-9.53 7.04c0.34 3.96 3.52 6.11 9.53 6.45c5.04 0 8.21-1.32 9.53-3.96z" />
	</g>
	<g id="9269873b-566f-aa23-fe77-697bbc54db67">
		<g id="Layer">
			<g id="Layer">
				<g id="Layer">
				</g>
			</g>
		</g>
	</g>
</svg>