<svg version="1.2" baseProfile="tiny-ps" xmlns="http://www.w3.org/2000/svg" viewBox="0 0 131 131" width="131" height="131">
	<title>icon-left-font-svg</title>
	<style>
		tspan { white-space:pre }
		.s0 { fill: #ffd7d7 } 
	</style>
	<g id="b5a93e15-ef7c-9d7a-680b-cdb17474f15f">
	</g>
	<g id="9269873b-566f-aa23-fe77-697bbc54db67">
		<g id="Layer">
			<g id="Layer">
				<g id="Layer">
					<path id="Layer" fill-rule="evenodd" class="s0" d="m19.02 111.31c-12.32-12.32-19.02-28.69-19.02-46.15c0-17.46 6.7-33.83 19.02-46.15c12.32-12.32 28.69-19.02 46.15-19.02c17.46 0 33.83 6.7 46.15 19.02c12.32 12.32 19.02 28.69 19.02 46.15c0 17.46-6.7 33.83-19.02 46.15c-12.32 12.32-28.69 19.02-46.15 19.02c-17.46 0-33.83-6.7-46.15-19.02zm49.89 7.95c4.68-7.02 8.42-14.34 11.07-22.14c-2.03-1.4-3.74-3.59-4.68-5.92l-27.59 0c2.49 9.82 6.7 19.18 12.32 27.91c1.71 0.16 3.43 0.31 5.14 0.31c1.25 0 2.49 0 3.74-0.16zm43.81-28.06h-12c-1.71 4.21-5.3 7.33-9.82 8.26c-1.87 5.77-4.21 11.22-7.17 16.68c12.32-4.68 22.76-13.56 29-24.94zm6.55-26.04c0-5.14-0.62-10.29-2.18-14.97l-21.51 0c0.62 4.68 0.94 9.51 0.94 14.34c0 3.43-0.16 6.86-0.47 10.29c1.87 1.4 3.43 3.27 4.37 5.3h16.84c1.25-4.83 2.03-9.82 2.03-14.97zm-34.61-50.51c4.05 7.8 7.02 15.9 9.04 24.48l19.02 0c-6.24-11.07-16.21-19.96-28.06-24.48zm0.94 49.89c0-4.83-0.31-9.67-0.94-14.34h-30.4c-2.03 3.43-5.3 6.08-9.35 6.86c-0.31 2.96-0.47 5.92-0.47 8.89c0 4.68 0.47 9.51 1.09 14.19l30.09 0c1.71-3.9 5.3-6.7 9.67-7.64c0.16-2.65 0.31-5.3 0.31-7.95zm-35.39-32.12c2.18 1.71 3.9 4.05 4.83 6.7h27.13c-2.49-9.82-6.7-19.18-12.32-27.91c-1.56-0.16-3.12-0.16-4.68-0.16c-1.25 0-2.65 0-4.05 0.16c-4.52 6.7-8.11 13.72-10.91 21.2zm-32.43 6.55l11.38 0c1.56-4.52 5.46-8.11 10.29-9.04c1.87-5.3 4.21-10.6 6.86-15.59c-12.32 4.68-22.45 13.56-28.53 24.63zm-4.52 41.16l21.2 0c-0.62-4.68-0.94-9.35-0.94-14.19c0-3.74 0.31-7.48 0.62-11.22c-1.56-1.25-2.96-2.81-3.9-4.52l-16.99 0c-1.4 4.68-2.18 9.82-2.18 14.97c0 5.14 0.62 10.13 2.18 14.97zm4.37 10.91c6.08 11.07 15.9 19.8 27.75 24.48c-4.05-7.8-7.02-16.06-9.04-24.48l-18.71 0z" />
				</g>
			</g>
		</g>
	</g>
</svg>